HIERARCHY
ROOT root
{
	OFFSET 0.000000 0.000000 0.000000
	CHANNELS 6 Xposition Yposition Zposition Zrotation Yrotation Xrotation
	JOINT lhip
	{
		OFFSET 0.058581 -0.082280 -0.017664
		CHANNELS 3 Zrotation Yrotation Xrotation
		JOINT lknee
		{
			OFFSET 0.043451 -0.386469 0.008037
			CHANNELS 3 Zrotation Yrotation Xrotation
			JOINT lankle
			{
				OFFSET -0.014790 -0.426874 -0.037428
				CHANNELS 3 Zrotation Yrotation Xrotation
				JOINT ltoe
				{
					OFFSET 0.041054 -0.060286 0.122042
					CHANNELS 3 Zrotation Yrotation Xrotation
					End Site
					{
						OFFSET 0.000000 0.000000 0.000000
					}
				}
			}
		}
	}
	JOINT rhip
	{
		OFFSET -0.060310 -0.090513 -0.013543
		CHANNELS 3 Zrotation Yrotation Xrotation
		JOINT rknee
		{
			OFFSET -0.043257 -0.383688 -0.004843
			CHANNELS 3 Zrotation Yrotation Xrotation
			JOINT rankle
			{
				OFFSET 0.019056 -0.420046 -0.034562
				CHANNELS 3 Zrotation Yrotation Xrotation
				JOINT rtoe
				{
					OFFSET -0.034840 -0.062106 0.130323
					CHANNELS 3 Zrotation Yrotation Xrotation
					End Site
					{
						OFFSET 0.000000 0.000000 0.000000
					}
				}
			}
		}
	}
	JOINT lowerback
	{
		OFFSET 0.004439 0.124404 -0.038385
		CHANNELS 3 Zrotation Yrotation Xrotation
		JOINT upperback
		{
			OFFSET 0.004488 0.137956 0.026820
			CHANNELS 3 Zrotation Yrotation Xrotation
			JOINT chest
			{
				OFFSET -0.002265 0.056032 0.002855
				CHANNELS 3 Zrotation Yrotation Xrotation
				JOINT lowerneck
				{
					OFFSET -0.013390 0.211636 -0.033468
					CHANNELS 3 Zrotation Yrotation Xrotation
					JOINT upperneck
					{
						OFFSET 0.010113 0.088937 0.050410
						CHANNELS 3 Zrotation Yrotation Xrotation
						End Site
						{
							OFFSET 0.000000 0.000000 0.000000
						}
					}
				}
				JOINT lclavicle
				{
					OFFSET 0.071702 0.114000 -0.018898
					CHANNELS 3 Zrotation Yrotation Xrotation
					JOINT lshoulder
					{
						OFFSET 0.122921 0.045205 -0.019046
						CHANNELS 3 Zrotation Yrotation Xrotation
						JOINT lelbow
						{
							OFFSET 0.255332 -0.015649 -0.022946
							CHANNELS 3 Zrotation Yrotation Xrotation
							JOINT lwrist
							{
								OFFSET 0.265709 0.012698 -0.007375
								CHANNELS 3 Zrotation Yrotation Xrotation
								End Site
								{
									OFFSET 0.000000 0.000000 0.000000
								}
							}
						}
					}
				}
				JOINT rclavicle
				{
					OFFSET -0.082954 0.112472 -0.023707
					CHANNELS 3 Zrotation Yrotation Xrotation
					JOINT rshoulder
					{
						OFFSET -0.113228 0.046853 -0.008472
						CHANNELS 3 Zrotation Yrotation Xrotation
						JOINT relbow
						{
							OFFSET -0.260127 -0.014369 -0.031269
							CHANNELS 3 Zrotation Yrotation Xrotation
							JOINT rwrist
							{
								OFFSET -0.269108 0.006794 -0.006027
								CHANNELS 3 Zrotation Yrotation Xrotation
								End Site
								{
									OFFSET 0.000000 0.000000 0.000000
								}
							}
						}
					}
				}
			}
		}
	}
}
MOTION
Frames: 11
Frame Time: 0.033333
-0.002552 0.204008 1.000906 98.124803 -1.729539 92.956649 6.091872 3.220398 -8.131697 -3.061456 -8.531469 4.869942 -2.832949 2.243565 -2.342846 0.000000 -0.000000 0.000000 -5.555153 -7.907037 -5.782656 1.150377 0.163602 5.722179 3.515751 -6.242984 -5.037049 0.000000 -0.000000 0.000000 7.633634 1.346263 5.000379 -8.453718 -2.915245 -3.521415 -6.451101 -1.499948 -1.617591 -15.903594 2.405088 1.526997 -16.602159 13.237662 -19.993739 -22.002871 6.924151 -5.088631 -54.577318 13.159667 1.512642 3.105821 -42.026556 31.252847 2.756594 -6.289516 -13.210409 -5.119162 -4.838169 -13.966362 -5.840657 22.681228 -26.318562 -153.619572 38.936736 -120.252483 -11.662369 12.059646 14.917409 
-0.001892 0.204255 1.000947 98.204058 -1.819993 92.875703 6.006046 3.536005 -7.978722 -3.191941 -8.843001 4.852117 -2.892435 2.186107 -2.383651 0.000000 -0.000000 0.000000 -5.682747 -8.074581 -5.464561 1.109865 0.374718 5.405088 3.814882 -6.276329 -4.910307 0.000000 -0.000000 0.000000 7.372257 1.286228 4.929918 -8.383813 -2.904748 -3.789195 -6.349353 -1.456266 -1.224494 -15.676503 2.501772 1.539481 -16.661087 13.347021 -19.887152 -21.734060 6.754732 -4.687367 -54.877918 12.853495 1.320652 3.119145 -41.598970 31.678587 3.270326 -6.309826 -13.733181 -5.238663 -4.980681 -13.945883 -5.591462 22.920197 -26.564223 -153.746020 39.047739 -119.729384 -11.851479 11.985321 13.916008 
-0.002950 0.204598 1.000954 98.329692 -1.751769 92.821000 6.041468 3.409404 -8.148686 -3.229802 -8.887580 5.110115 -2.852843 2.194112 -2.412971 0.000000 -0.000000 0.000000 -5.613481 -7.969305 -5.515310 1.049359 0.367091 5.496957 3.802885 -6.511610 -4.836681 0.000000 -0.000000 0.000000 7.390843 1.061145 5.254505 -8.357050 -2.930519 -3.978909 -6.295091 -1.507224 -1.271526 -15.414953 2.562206 1.401596 -16.491365 13.534521 -19.670393 -21.867237 6.760146 -4.498662 -54.652495 13.079235 1.093053 2.822697 -42.439008 31.544950 2.737628 -5.997987 -13.470231 -5.165910 -4.906735 -13.910288 -5.598168 22.896161 -26.547061 -153.694776 39.016250 -119.911334 -11.580654 11.939779 13.776378 
-0.002940 0.205621 1.000771 98.222963 -1.704736 92.685000 5.999322 3.288064 -7.897477 -3.150230 -8.824669 4.958161 -2.799449 2.279686 -2.448538 0.000000 -0.000000 0.000000 -5.638415 -7.958587 -5.388370 1.039107 0.384311 5.517728 3.882152 -6.495100 -4.857310 0.000000 -0.000000 0.000000 7.444884 1.150907 5.394203 -8.303355 -2.931058 -3.902336 -6.235303 -1.439115 -1.308763 -15.300022 2.348902 1.557701 -16.279383 13.580109 -19.636861 -21.748008 6.613977 -4.463956 -54.813465 12.898821 1.242146 2.741166 -42.083906 31.714656 3.022411 -6.089927 -13.576118 -5.357040 -4.970909 -13.927188 -5.470824 22.771492 -26.445804 -153.722386 38.963875 -120.011299 -11.552397 12.019652 13.646205 
-0.002916 0.206445 1.000721 98.167697 -1.767091 92.592858 5.849981 3.273502 -7.757487 -3.120254 -8.836899 4.940630 -2.773657 2.308882 -2.435793 0.000000 -0.000000 0.000000 -5.778030 -8.047682 -5.297462 1.042391 0.478244 5.516026 3.956598 -6.416012 -4.857775 0.000000 -0.000000 0.000000 7.462505 1.161467 5.480092 -8.320117 -2.925891 -3.946466 -6.267758 -1.416646 -1.227618 -15.184572 2.329794 1.523503 -16.277559 13.562500 -19.606365 -21.632149 6.624373 -4.559387 -54.925309 12.783362 1.301096 2.644395 -41.842170 31.958138 3.134347 -6.097589 -13.833582 -5.444040 -5.067225 -14.031300 -5.314515 22.861436 -26.361032 -153.792169 38.992424 -119.866170 -11.577166 11.944754 13.869271 
-0.003463 0.207060 1.000645 98.083434 -1.709980 92.765422 5.858478 3.170577 -8.080865 -3.136882 -8.709713 5.156791 -2.701181 2.336886 -2.425598 0.000000 -0.000000 0.000000 -5.686550 -7.966116 -5.623120 0.936172 0.496008 5.656213 3.982646 -6.423255 -4.784218 0.000000 -0.000000 0.000000 7.459050 1.169155 5.341209 -8.243226 -2.949041 -3.932773 -6.168059 -1.374184 -1.232733 -15.171949 2.221897 1.567473 -16.233649 13.587363 -19.797466 -21.755252 6.628466 -4.514306 -54.973070 12.639097 1.335685 2.786768 -41.747229 31.897063 3.282273 -6.274337 -13.687378 -5.416254 -5.056488 -14.034803 -5.452867 22.904860 -26.404962 -153.760777 39.000880 -119.887063 -11.663012 12.044334 13.662425 
-0.003582 0.208648 1.000518 97.757394 -1.694897 92.767575 5.755088 3.156631 -8.015572 -3.098813 -8.570603 5.133677 -2.675996 2.521561 -2.537359 0.000000 -0.000000 0.000000 -5.796236 -7.906181 -5.772313 0.990125 0.602518 5.786176 3.991187 -6.308504 -4.797820 0.000000 -0.000000 0.000000 7.671437 1.387457 5.299980 -8.251045 -2.911811 -3.787036 -6.276444 -1.339067 -1.352211 -15.053010 2.258412 1.564467 -16.104113 13.627729 -19.397402 -21.860349 6.593084 -4.421121 -55.045687 12.565046 1.369461 3.041416 -41.701306 31.668025 3.256087 -6.367041 -13.608300 -5.379196 -5.044218 -13.776510 -5.616084 22.908284 -26.628186 -153.766574 38.918560 -119.928828 -11.888363 12.174626 13.331160 
-0.003535 0.209491 1.000497 97.615201 -1.740172 92.714195 5.679513 3.147797 -7.933550 -3.155742 -8.508949 5.162951 -2.637145 2.544811 -2.551364 0.000000 -0.000000 0.000000 -5.909178 -7.902447 -5.721021 0.979074 0.679607 5.846179 4.049462 -6.256858 -4.876796 0.000000 -0.000000 0.000000 7.611790 1.454049 5.265614 -8.191311 -2.945984 -3.672768 -6.273422 -1.371861 -1.302219 -14.928402 2.321423 1.541819 -16.112695 13.648634 -19.544267 -21.852280 6.601633 -4.495381 -54.922750 12.479298 1.524216 2.699577 -41.743920 31.932510 3.186642 -6.157617 -13.635891 -5.277989 -5.043245 -13.903799 -5.605712 23.048245 -26.487741 -153.755554 38.867785 -119.964459 -11.877065 12.165298 13.769270 
-0.003726 0.210561 1.000607 97.409276 -1.699355 92.649411 5.647829 3.213272 -7.857994 -3.187947 -8.417678 5.230683 -2.604069 2.566507 -2.634437 0.000000 -0.000000 0.000000 -5.933766 -7.824161 -5.694563 0.946651 0.701377 5.857598 4.032178 -6.133135 -4.863618 0.000000 -0.000000 0.000000 7.700467 1.415838 5.361048 -8.168998 -2.976185 -3.585607 -6.176838 -1.400452 -1.344616 -14.928832 2.375114 1.377297 -16.301946 13.828351 -19.731954 -22.027564 6.079801 -4.327090 -55.065465 12.767976 1.357439 3.358133 -41.602611 30.946610 3.298605 -6.506974 -13.268153 -5.285594 -4.782890 -13.881644 -5.735126 22.950434 -26.703386 -153.806270 38.875036 -120.194922 -11.938844 12.358435 13.026902 
-0.003694 0.211772 1.000598 97.181790 -1.679665 92.580616 5.553732 3.221993 -7.725210 -3.152885 -8.323363 5.230903 -2.525047 2.670402 -2.730196 0.000000 -0.000000 0.000000 -5.968608 -7.795578 -5.634402 0.865071 0.823773 5.821930 4.059567 -6.088062 -4.845980 0.000000 -0.000000 0.000000 7.699222 1.389292 5.431733 -8.079479 -2.935173 -3.541476 -6.121645 -1.396549 -1.374976 -14.711985 2.544161 1.225922 -16.250565 13.827338 -19.544550 -21.951151 6.093067 -4.233727 -55.118903 12.637141 1.320973 3.059934 -41.549339 31.371275 3.334633 -6.593410 -13.348561 -5.316092 -4.775830 -13.733850 -5.574336 23.111355 -26.696201 -153.848615 38.794750 -120.321257 -12.407778 12.555822 12.159124 
-0.003732 0.212748 1.000710 97.062068 -1.659287 92.493637 5.446623 3.295509 -7.682888 -3.114788 -8.346907 5.379884 -2.496319 2.723159 -2.769922 0.000000 -0.000000 0.000000 -6.019341 -7.829856 -5.548792 0.856471 0.941533 5.794339 4.112652 -6.111804 -4.832805 0.000000 -0.000000 0.000000 7.695375 1.367628 5.449785 -7.975669 -2.971403 -3.466081 -6.080474 -1.407879 -1.272843 -14.650387 2.420491 1.234977 -16.183392 13.738109 -19.658997 -21.913824 6.042468 -4.174200 -55.111911 12.458672 1.469765 2.686458 -41.567750 31.919982 3.732758 -6.193961 -13.885941 -5.254390 -4.736412 -13.814403 -5.517715 23.286956 -26.638842 -153.929116 38.767421 -120.330887 -12.719765 12.684689 12.194188 
